<svg width="39" height="39" viewBox="0 0 39 39" fill="none" xmlns="http://www.w3.org/2000/svg">
<path d="M22.0168 7.83333C14.2166 7.83333 7.86677 14.1777 7.86393 21.9779C7.86252 24.4712 8.51558 26.9053 9.75374 29.0501L7.8335 36.1667L15.2461 34.4152C17.313 35.5429 19.6398 36.1348 22.0085 36.1362H22.014C29.8127 36.1362 36.1598 29.7904 36.1641 21.9917C36.1669 18.2106 34.6966 14.6556 32.0247 11.981C29.3529 9.3077 25.8021 7.83474 22.0168 7.83333ZM22.014 10.6667C25.04 10.6681 27.8837 11.8479 30.0215 13.9842C32.1592 16.1234 33.3336 18.9658 33.3307 21.9889C33.3279 28.2279 28.2531 33.3029 22.0112 33.3029C20.1228 33.3015 18.2522 32.8273 16.6047 31.9277L15.6501 31.4075L14.5959 31.6566L11.8068 32.3151L12.4875 29.7861L12.7946 28.6517L12.208 27.6335C11.2192 25.9221 10.6958 23.9654 10.6973 21.9779C10.7001 15.7417 15.7764 10.6667 22.014 10.6667ZM17.0086 15.4479C16.772 15.4479 16.3895 15.5365 16.0651 15.8906C15.7407 16.2434 14.8255 17.0977 14.8255 18.8374C14.8255 20.5771 16.0928 22.2587 16.2699 22.4953C16.4455 22.7304 18.716 26.4132 22.3101 27.8299C25.2964 29.0072 25.9029 28.7748 26.5518 28.7153C27.2006 28.6572 28.6449 27.8617 28.9396 27.0358C29.2343 26.2099 29.235 25.4994 29.1471 25.3535C29.0593 25.2062 28.8234 25.1183 28.4692 24.9412C28.1165 24.7642 26.3781 23.9105 26.0537 23.793C25.7293 23.6754 25.492 23.6159 25.2568 23.97C25.0217 24.3242 24.3458 25.1183 24.139 25.3535C23.9322 25.5901 23.7267 25.6219 23.3726 25.4448C23.0184 25.2663 21.8797 24.892 20.5282 23.6878C19.477 22.7514 18.7677 21.596 18.5609 21.2419C18.3555 20.8891 18.5415 20.6954 18.7186 20.5197C18.8773 20.361 19.07 20.1067 19.2471 19.8999C19.4227 19.6931 19.4837 19.5457 19.6012 19.3105C19.7188 19.0754 19.6586 18.8678 19.5708 18.6908C19.483 18.5137 18.7951 16.7675 18.4806 16.0677C18.2157 15.4798 17.9359 15.4661 17.6838 15.4562C17.4783 15.4477 17.2438 15.4479 17.0086 15.4479Z" fill="#1C1C1C"/>
</svg>
