<svg width="81" height="82" viewBox="0 0 81 82" fill="none" xmlns="http://www.w3.org/2000/svg">
<path d="M2.34008 80.2156C2.45301 80.7562 2.98282 81.1029 3.52344 80.99L12.3332 79.1495C12.8739 79.0366 13.2206 78.5068 13.1076 77.9662C12.9947 77.4256 12.4649 77.0789 11.9243 77.1918L4.09332 78.8277L2.45738 70.9968C2.34445 70.4562 1.81464 70.1095 1.27402 70.2224C0.733409 70.3353 0.386709 70.8652 0.499646 71.4058L2.34008 80.2156ZM47.369 28.5585L47.6817 29.5084L47.6817 29.5084L47.369 28.5585ZM51.2314 40.8613L50.5782 40.1041L51.2314 40.8613ZM64.784 6.44395L65.2678 7.31913L64.784 6.44395ZM4.15571 80.5587C8.97767 73.19 17.7968 58.5319 24.587 50.0387L23.0248 48.7898C16.156 57.3815 7.22038 72.2229 2.48218 79.4635L4.15571 80.5587ZM24.587 50.0387C27.9493 45.833 32.7066 41.2483 36.6492 37.6968C38.6155 35.9254 40.3698 34.4195 41.6321 33.3567C42.2631 32.8254 42.7709 32.4051 43.1204 32.1181C43.2951 31.9746 43.4302 31.8644 43.5214 31.7904C43.5669 31.7533 43.6015 31.7253 43.6246 31.7067C43.6361 31.6974 43.6447 31.6904 43.6504 31.6859C43.6532 31.6836 43.6553 31.6819 43.6567 31.6808C43.6573 31.6803 43.6578 31.6799 43.6581 31.6796C43.6583 31.6795 43.6584 31.6794 43.6584 31.6794C43.6585 31.6793 43.6585 31.6793 43.0317 30.9002C42.4049 30.121 42.4048 30.121 42.4046 30.1212C42.4045 30.1213 42.4043 30.1214 42.4041 30.1216C42.4036 30.122 42.403 30.1225 42.4022 30.1232C42.4005 30.1245 42.3981 30.1264 42.395 30.129C42.3887 30.134 42.3794 30.1415 42.3673 30.1513C42.343 30.171 42.3071 30.2 42.2602 30.2381C42.1665 30.3143 42.0286 30.4267 41.851 30.5725C41.4959 30.8642 40.9818 31.2897 40.344 31.8267C39.0686 32.9006 37.2969 34.4214 35.3106 36.2108C31.3476 39.7806 26.4919 44.4531 23.0248 48.7898L24.587 50.0387ZM43.0317 30.9002C43.6767 31.6644 43.6765 31.6645 43.6764 31.6646C43.6763 31.6646 43.6762 31.6648 43.6761 31.6648C43.6759 31.665 43.6758 31.6651 43.6757 31.6652C43.6755 31.6654 43.6754 31.6655 43.6753 31.6655C43.6753 31.6655 43.6757 31.6651 43.6766 31.6645C43.6782 31.6631 43.6815 31.6603 43.6865 31.6563C43.6964 31.6481 43.7129 31.6347 43.7357 31.6166C43.7813 31.5803 43.852 31.5251 43.946 31.4552C44.1343 31.3151 44.4145 31.1167 44.7714 30.8925C45.4883 30.4421 46.4984 29.898 47.6817 29.5084L47.0563 27.6087C45.6773 28.0627 44.5187 28.6894 43.7075 29.1989C43.3004 29.4547 42.9767 29.6835 42.7521 29.8507C42.6396 29.9343 42.5517 30.0028 42.4902 30.0517C42.4595 30.0762 42.4353 30.0958 42.418 30.11C42.4093 30.1171 42.4024 30.1229 42.3971 30.1272C42.3945 30.1294 42.3924 30.1312 42.3906 30.1327C42.3897 30.1334 42.389 30.134 42.3883 30.1346C42.388 30.1349 42.3877 30.1351 42.3874 30.1353C42.3873 30.1355 42.3871 30.1356 42.387 30.1357C42.3869 30.1358 42.3867 30.136 43.0317 30.9002ZM47.6817 29.5084C49.1467 29.0261 50.4247 28.7632 51.4059 28.8731C51.8776 28.926 52.2436 29.0614 52.5284 29.2701C52.8084 29.4752 53.0687 29.794 53.2659 30.3122L55.1352 29.6009C54.8197 28.7718 54.3421 28.1196 53.7104 27.6568C53.0836 27.1975 52.3643 26.968 51.6286 26.8856C50.195 26.725 48.57 27.1104 47.0563 27.6087L47.6817 29.5084ZM53.2659 30.3122C53.6993 31.451 53.8549 33.2061 53.4646 35.0548C53.0775 36.888 52.1713 38.7299 50.5782 40.1041L51.8845 41.6185C53.8714 39.9047 54.9625 37.6415 55.4214 35.468C55.877 33.31 55.7272 31.1567 55.1352 29.6009L53.2659 30.3122ZM50.5782 40.1041C49.147 41.3387 47.9975 42.0103 46.8614 42.3205C45.7317 42.6289 44.5137 42.6075 42.8933 42.2759L42.4924 44.2353C44.2877 44.6027 45.8479 44.6703 47.3881 44.2499C48.9217 43.8312 50.3337 42.9563 51.8845 41.6185L50.5782 40.1041ZM42.8933 42.2759C42.7937 42.2555 42.6989 42.2066 42.5912 42.0213C42.4661 41.8062 42.3558 41.4497 42.299 40.923C42.1858 39.8725 42.3155 38.46 42.5671 36.9838C42.8157 35.5257 43.1697 34.0802 43.4637 32.9936C43.6103 32.4517 43.7411 32.0025 43.8349 31.6896C43.8818 31.5333 43.9194 31.4112 43.945 31.3288C43.9579 31.2877 43.9677 31.2564 43.9742 31.2359C43.9775 31.2256 43.9799 31.2179 43.9815 31.2131C43.9823 31.2106 43.9828 31.2089 43.9832 31.2078C43.9833 31.2073 43.9835 31.2069 43.9835 31.2068C43.9835 31.2067 43.9835 31.2067 43.9836 31.2066C43.9835 31.2067 43.9835 31.2067 43.0317 30.9002C42.0798 30.5936 42.0798 30.5937 42.0797 30.594C42.0797 30.5941 42.0796 30.5944 42.0795 30.5946C42.0793 30.5952 42.0791 30.5959 42.0788 30.5967C42.0782 30.5985 42.0775 30.601 42.0764 30.6042C42.0744 30.6105 42.0715 30.6196 42.0678 30.6314C42.0603 30.6549 42.0495 30.6893 42.0357 30.7336C42.008 30.8224 41.9683 30.9514 41.9192 31.1151C41.821 31.4425 41.6851 31.9093 41.5331 32.4712C41.2299 33.5921 40.8587 35.1043 40.5956 36.6477C40.3356 38.1729 40.167 39.8056 40.3105 41.1373C40.3821 41.8017 40.5389 42.4706 40.8622 43.0267C41.203 43.6127 41.738 44.0809 42.4924 44.2353L42.8933 42.2759ZM43.0317 30.9002C43.9051 31.3872 43.905 31.3873 43.905 31.3873C43.9051 31.3872 43.9051 31.3871 43.9052 31.387C43.9054 31.3866 43.9057 31.386 43.9062 31.3851C43.9072 31.3833 43.9088 31.3805 43.911 31.3765C43.9155 31.3687 43.9223 31.3565 43.9315 31.3402C43.9499 31.3077 43.9778 31.2585 44.0149 31.1936C44.0892 31.0638 44.2006 30.8712 44.3468 30.6228C44.6394 30.1262 45.0717 29.4071 45.6275 28.523C46.7396 26.754 48.3435 24.3282 50.3094 21.7032C54.2632 16.4237 59.5966 10.4542 65.2678 7.31913L64.3002 5.56877C58.241 8.91831 52.6983 15.1769 48.7085 20.5043C46.7026 23.1828 45.0679 25.6552 43.9343 27.4586C43.3672 28.3606 42.9249 29.0962 42.6236 29.6077C42.4729 29.8635 42.3575 30.0633 42.2793 30.1999C42.2402 30.2682 42.2103 30.3207 42.1901 30.3566C42.18 30.3745 42.1722 30.3882 42.1669 30.3977C42.1643 30.4024 42.1622 30.4061 42.1608 30.4087C42.1601 30.4099 42.1595 30.411 42.1591 30.4117C42.1589 30.4121 42.1587 30.4124 42.1586 30.4126C42.1584 30.4129 42.1583 30.4131 43.0317 30.9002ZM65.2678 7.31913C69.8124 4.80691 73.7578 3.57346 76.5521 2.96768C77.9496 2.66473 79.0593 2.51873 79.812 2.44839C80.1884 2.41323 80.4755 2.39699 80.6645 2.3895C80.759 2.38576 80.829 2.3842 80.8734 2.38356C80.8956 2.38325 80.9114 2.38316 80.9207 2.38314C80.9253 2.38313 80.9283 2.38313 80.9296 2.38314C80.9303 2.38314 80.9306 2.38314 80.9304 2.38314C80.9303 2.38314 80.9302 2.38314 80.9299 2.38314C80.9297 2.38314 80.9294 2.38313 80.9294 2.38313C80.929 2.38313 80.9287 2.38313 80.9385 1.38318C80.9484 0.383225 80.948 0.383221 80.9476 0.383217C80.9474 0.383215 80.9469 0.383211 80.9466 0.383208C80.9459 0.383202 80.9451 0.383196 80.9442 0.38319C80.9423 0.383177 80.9401 0.383164 80.9374 0.383154C80.9321 0.383133 80.9251 0.383122 80.9164 0.383141C80.8991 0.383178 80.8751 0.383334 80.8447 0.383771C80.7838 0.384645 80.697 0.386645 80.5853 0.391067C80.362 0.39991 80.0393 0.418446 79.626 0.457066C78.7994 0.534301 77.61 0.691898 76.1284 1.01308C73.1648 1.65557 69.033 2.95251 64.3002 5.56877L65.2678 7.31913Z" fill="white"/>
</svg>
