<svg width="54" height="54" viewBox="0 0 54 54" fill="none" xmlns="http://www.w3.org/2000/svg">
<rect width="54" height="54" rx="5" fill="#686868"/>
<path d="M12 17C12 14.2383 13.6787 12 15.75 12H38.25C40.3184 12 42 14.2383 42 17V37C42 39.7578 40.3184 42 38.25 42H15.75C13.6787 42 12 39.7578 12 37V17ZM14.8125 17V18.7266L24.9199 29.7891C26.127 31.1172 27.873 31.1172 29.0801 29.7891L39.1875 18.7266V16.9297C39.1875 16.3125 38.7656 15.6797 38.25 15.6797H15.75C15.232 15.6797 14.8125 16.3125 14.8125 16.9297V17ZM14.8125 23.5781V37C14.8125 37.6875 15.232 38.25 15.75 38.25H38.25C38.7656 38.25 39.1875 37.6875 39.1875 37V23.5781L30.8672 32.6875C28.6172 35.1484 25.3828 35.1484 23.0801 32.6875L14.8125 23.5781Z" fill="white"/>
</svg>
