<svg width="54" height="54" viewBox="0 0 54 54" fill="none" xmlns="http://www.w3.org/2000/svg">
<rect width="54" height="54" rx="5" fill="#686868"/>
<path d="M41.3733 14.4553C40.8633 14.0229 40.0622 13.961 39.234 14.2935H39.2326C38.3615 14.643 14.5751 24.8457 13.6068 25.2626C13.4307 25.3238 11.8925 25.8977 12.051 27.1761C12.1924 28.3287 13.4287 28.8061 13.5796 28.8611L19.6269 30.9317C20.0281 32.2673 21.5071 37.1945 21.8341 38.2472C22.0381 38.9034 22.3707 39.7656 22.9534 39.9431C23.4648 40.1403 23.9734 39.9601 24.3025 39.7017L27.9997 36.2725L33.9681 40.9271L34.1102 41.0121C34.5155 41.1916 34.9037 41.2813 35.2743 41.2813C35.5606 41.2813 35.8353 41.2276 36.0978 41.1202C36.992 40.753 37.3497 39.9009 37.3871 39.8044L41.8452 16.632C42.1172 15.3944 41.7391 14.7647 41.3733 14.4553ZM24.9601 31.76L22.9201 37.2L20.8801 30.4L36.5201 18.84L24.9601 31.76Z" fill="white"/>
</svg>
