<svg width="227" height="292" viewBox="0 0 227 292" fill="none" xmlns="http://www.w3.org/2000/svg">
<path d="M1 2L27 10L47 13.5H78L98 10L117 6.5H145.5L157 7.5L164 10L169.5 13.5L174 18.5L178 24M178 24L177 31L174 36.5L169.5 41.5L164 46L158 51.5L152 56.5L145.5 60.5L140.5 62.5L135 66L128 68.5C128 68.5 111 71 92.5 68.5C92.5 68.5 88.313 66.7252 86.5 66C84.3169 65.1268 81.5 60.5 81.5 60.5L78 56.5C78 56.5 77 53.4526 77 51.5C77 51.5 76.6554 48.2593 77 46C77.265 44.2627 78 41.5 78 41.5L80 37L83.5 33.5L88.5 28L92.5 26L98 24L106 20.5L113 18.5L125 17.5L145.5 18.5C145.5 18.5 153.237 19.4308 158 20.5C162.857 21.5904 163.841 21.4278 168.5 22C171.795 22.4046 178 24 178 24ZM178 24L189 29L193 30L197 33L201 36.5L204.5 39C204.5 39 206.746 41.8797 207.5 42.5C211.164 45.515 211 46 211 46L214 51.5L216 56.5V60.5V65L215 78.5L212 86L205.5 95.5L201 101.5L193 108L183.5 117L169.5 126.5L158 137.5L151 147L145.5 154.5L142.5 163.5V180.5L146.5 189.5L158 200L174 209.5L193 217L209 226L222 238.5L225.5 245.5V264.5L223 271.5L216 281L212 290.5" stroke="#F4440F" stroke-width="3"/>
</svg>
