<svg width="54" height="54" viewBox="0 0 54 54" fill="none" xmlns="http://www.w3.org/2000/svg">
<rect width="54" height="54" rx="5" fill="#686868"/>
<path d="M28.0168 11.8333C20.2166 11.8333 13.8668 18.1777 13.8639 25.9778C13.8625 28.4712 14.5156 30.9053 15.7537 33.0501L13.8335 40.1666L21.2461 38.4152C23.313 39.5429 25.6398 40.1348 28.0085 40.1362H28.014C35.8127 40.1362 42.1598 33.7904 42.1641 25.9917C42.1669 22.2106 40.6966 18.6556 38.0247 15.9809C35.3529 13.3077 31.8021 11.8347 28.0168 11.8333ZM28.014 14.6666C31.04 14.6681 33.8837 15.8479 36.0215 17.9842C38.1592 20.1234 39.3336 22.9657 39.3307 25.9889C39.3279 32.2279 34.2531 37.3029 28.0112 37.3029C26.1228 37.3015 24.2522 36.8273 22.6047 35.9277L21.6501 35.4075L20.5959 35.6566L17.8068 36.3151L18.4875 33.7861L18.7946 32.6517L18.208 31.6334C17.2192 29.9221 16.6958 27.9654 16.6973 25.9778C16.7001 19.7417 21.7764 14.6666 28.014 14.6666ZM23.0086 19.4479C22.772 19.4479 22.3895 19.5364 22.0651 19.8906C21.7407 20.2434 20.8255 21.0977 20.8255 22.8374C20.8255 24.577 22.0928 26.2587 22.2699 26.4953C22.4455 26.7304 24.716 30.4132 28.3101 31.8299C31.2964 33.0071 31.9029 32.7748 32.5518 32.7153C33.2006 32.6572 34.6449 31.8617 34.9396 31.0358C35.2343 30.2099 35.235 29.4994 35.1471 29.3535C35.0593 29.2062 34.8234 29.1183 34.4692 28.9412C34.1165 28.7641 32.3781 27.9105 32.0537 27.7929C31.7293 27.6754 31.492 27.6159 31.2568 27.97C31.0217 28.3242 30.3458 29.1183 30.139 29.3535C29.9322 29.5901 29.7267 29.6219 29.3726 29.4448C29.0184 29.2663 27.8797 28.892 26.5282 27.6878C25.477 26.7514 24.7677 25.596 24.5609 25.2418C24.3555 24.8891 24.5415 24.6953 24.7186 24.5197C24.8773 24.361 25.07 24.1067 25.2471 23.8999C25.4227 23.693 25.4837 23.5457 25.6012 23.3105C25.7188 23.0754 25.6586 22.8678 25.5708 22.6907C25.483 22.5137 24.7951 20.7675 24.4806 20.0677C24.2157 19.4798 23.9359 19.4661 23.6838 19.4562C23.4783 19.4477 23.2438 19.4479 23.0086 19.4479Z" fill="white"/>
</svg>
